PathFileType	4	(x/y/z)	S04_P20_T17.trc
DataRate	CameraRate	NumFrames	NumMarkers	Units	OrigDataRate	OrigDataStartFrame	OrigNumFrames
240	240	11	51	mm	240	47	370
Frame#	Time	Sternum			R.Acromium			L.Acromium			Top.Head			R.ASIS			L.ASIS			R.PSIS			L.PSIS			R.Great.Tro			L.Great.Tro			R.Iliac.Crest			L.Iliac.Crest			V.Sacral			R.Thigh.Upper.Post			R.Thigh.Lower.Ant			R.Thigh.Lower.Post			R.Thigh.Upper.Ant			R.Knee.Lat			R.Knee.Med			R.Shank.Upper.Post			R.Shank.Lower.Ant			R.Shank.Lower.Post			R.Shank.Upper.Ant			R.Ankle.Lat			R.Ankle.Med			R.Heel.Upper			R.Heel.Med			R.Heel.Lat			R.Toe.Lat			R.Toe.Med			R.Toe.Tip			L.Thigh.Upper.Post			L.Thigh.Lower.Ant			L.Thigh.Lower.Post			L.Thigh.Upper.Ant			L.Knee.Lat			L.Knee.Med			L.Shank.Upper.Post			L.Shank.Lower.Ant			L.Shank.Lower.Post			L.Shank.Upper.Ant			L.Ankle.Lat			L.Ankle.Med			L.Heel.Upper			L.Heel.Med			L.Heel.Lat			L.Toe.Lat			L.Toe.Med			L.Toe.Tip			Cervical.Spine			Back			
		X1	Y1	Z1	X2	Y2	Z2	X3	Y3	Z3	X4	Y4	Z4	X5	Y5	Z5	X6	Y6	Z6	X7	Y7	Z7	X8	Y8	Z8	X9	Y9	Z9	X10	Y10	Z10	X11	Y11	Z11	X12	Y12	Z12	X13	Y13	Z13	X14	Y14	Z14	X15	Y15	Z15	X16	Y16	Z16	X17	Y17	Z17	X18	Y18	Z18	X19	Y19	Z19	X20	Y20	Z20	X21	Y21	Z21	X22	Y22	Z22	X23	Y23	Z23	X24	Y24	Z24	X25	Y25	Z25	X26	Y26	Z26	X27	Y27	Z27	X28	Y28	Z28	X29	Y29	Z29	X30	Y30	Z30	X31	Y31	Z31	X32	Y32	Z32	X33	Y33	Z33	X34	Y34	Z34	X35	Y35	Z35	X36	Y36	Z36	X37	Y37	Z37	X38	Y38	Z38	X39	Y39	Z39	X40	Y40	Z40	X41	Y41	Z41	X42	Y42	Z42	X43	Y43	Z43	X44	Y44	Z44	X45	Y45	Z45	X46	Y46	Z46	X47	Y47	Z47	X48	Y48	Z48	X49	Y49	Z49	X50	Y50	Z50	X51	Y51	Z51	

47	0.19167	-1083.9	1273.3	247.67	-1183.5	1504.1	434.3	-1231.8	1490.2	87.496	-1138.7	1826.9	239.63	-1122.3	988.98	394.73	NaN	NaN	NaN	NaN	NaN	NaN	NaN	NaN	NaN	-1209.3	904.27	454.83	-1235	926.7	80.046	-1212.2	1083.5	439.92	-1231.3	1092.2	102.62	-1360.6	985.65	257.06	-1176.3	646.92	452.08	-1086.8	575.7	431.25	-1161.1	557.53	439.95	-1096.6	685.59	447.49	-1142	493	435.19	-1145.2	488.23	299.81	-1345.4	387.02	420.6	NaN	NaN	NaN	-1395.3	339.08	406.67	NaN	NaN	NaN	-1476.2	257.07	388.52	-1441	238.11	306.27	-1537.5	272.86	323.47	-1545.4	242.1	294.66	-1564.8	253.84	355.97	-1461.9	133.94	436.98	-1413.6	94.353	329.61	NaN	NaN	NaN	-1199.3	687.03	89.315	-1099.4	610.85	95.321	-1171.6	603.06	103.79	-1132.2	693.89	78.425	-1111.8	518.97	110.37	-1111.4	507.67	233.2	-1188.5	336.78	105.82	-1119.6	250.77	112.89	-1182.1	258.74	113.95	-1126.9	326.87	104.9	-1142.2	99.856	128.22	-1139.6	109.76	221.98	-1217.8	69.315	174.46	-1211.8	45.884	208.71	-1215.8	40.73	147.76	-1030.4	42.407	110.68	-1000.1	51.331	226.66	-942.48	63.018	177.72	-1251.5	1554.4	269.9	-1349.9	1298.6	260.9
48	0.19583	-1078.7	1274	247.63	-1178.6	1504.9	434	-1226.1	1490.9	87.122	-1133.1	1827.6	239.26	-1117.3	989.81	394.45	NaN	NaN	NaN	NaN	NaN	NaN	NaN	NaN	NaN	-1204.1	905.18	454.63	-1230.2	927.18	79.909	-1207.2	1084.2	439.62	-1226.1	1092.9	102.33	-1355.7	986.34	256.8	-1168.2	648.07	451.76	-1078	577.86	431.03	-1152.1	558.84	439.57	-1089	687.61	447.36	-1132.4	494.76	434.83	-1135.2	489.98	299.42	-1335.1	387.7	419.83	-1343.2	283.01	390.53	-1384.7	339.39	405.99	NaN	NaN	NaN	-1464.9	256.84	387.86	-1429.5	237.8	305.69	-1526.3	271.64	322.5	-1534	240.61	293.81	-1553.7	252.64	355.07	-1449.2	134.14	437.14	-1400.7	94.431	330.04	NaN	NaN	NaN	-1195.9	687.47	89.364	-1096.5	610.66	95.291	-1168.8	603.32	103.82	-1128.8	693.89	78.39	-1109.6	518.8	110.4	-1109.1	507.61	233.26	-1187.5	336.95	106.28	-1118.7	250.69	112.99	-1181.1	259.03	114.21	-1125.8	326.82	105.03	-1142.1	100.01	128.45	-1139.4	109.74	222.22	-1217.8	69.459	174.59	-1211.8	45.93	208.8	-1215.7	40.892	147.83	-1030.4	42.433	110.67	-1000	51.063	226.69	-942.41	62.729	177.73	-1246.1	1555.2	269.45	-1344.7	1299.4	260.26
49	0.2	-1073.6	1274.6	247.6	-1173.6	1505.6	433.69	-1220.3	1491.7	86.758	-1127.5	1828.3	238.91	-1112.4	990.67	394.18	NaN	NaN	NaN	NaN	NaN	NaN	NaN	NaN	NaN	-1198.9	906.15	454.46	-1225.5	927.66	79.793	-1202.2	1085	439.32	-1220.9	1093.6	102.05	-1350.7	987.06	256.57	-1160.3	649.27	451.48	-1069.3	580.06	430.77	-1143.2	560.21	439.21	-1081.5	689.66	447.22	-1122.8	496.55	434.47	-1125.2	491.8	299.04	-1324.7	388.14	419.1	-1333.2	282.62	390.26	-1374	339.4	405.35	NaN	NaN	NaN	-1453.4	256.2	387.23	-1417.8	237.21	305.13	-1514.8	269.98	321.62	-1522.4	238.69	293.02	-1542.3	250.94	354.25	-1436	133.94	437.24	-1387.3	94.276	330.35	NaN	NaN	NaN	-1192.5	687.93	89.427	-1093.6	610.48	95.279	-1165.9	603.59	103.86	-1125.4	693.9	78.378	-1107.4	518.64	110.44	-1106.9	507.54	233.34	-1186.5	337.11	106.73	-1117.9	250.61	113.1	-1180.2	259.32	114.48	-1124.7	326.77	105.16	-1142	100.17	128.69	-1139.3	109.74	222.46	-1217.9	69.613	174.72	-1211.8	45.983	208.89	-1215.7	41.06	147.89	-1030.4	42.461	110.66	-999.92	50.799	226.72	-942.35	62.446	177.75	-1240.7	1555.9	269	-1339.5	1300.2	259.63
50	0.20417	-1068.5	1275.3	247.57	-1168.7	1506.4	433.4	-1214.6	1492.4	86.404	-1121.8	1828.9	238.59	-1107.4	991.57	393.92	NaN	NaN	NaN	NaN	NaN	NaN	NaN	NaN	NaN	-1193.7	907.16	454.32	-1220.8	928.13	79.696	-1197.3	1085.8	439.04	-1215.7	1094.3	101.79	-1345.7	987.8	256.38	-1152.4	650.53	451.22	-1060.7	582.3	430.49	-1134.4	561.65	438.86	-1073.9	691.74	447.06	-1113.4	498.37	434.1	-1115.4	493.69	298.66	-1314.3	388.36	418.41	-1322.6	282.17	389.96	-1363.2	339.13	404.75	NaN	NaN	NaN	-1441.7	255.17	386.65	-1405.9	236.34	304.59	-1503.2	267.9	320.82	-1510.5	236.37	292.29	-1530.6	248.76	353.53	-1422.4	133.35	437.29	-1373.5	93.896	330.56	NaN	NaN	NaN	-1189.2	688.39	89.499	-1090.8	610.29	95.282	-1163.2	603.87	103.89	-1122.1	693.91	78.386	-1105.2	518.48	110.49	-1104.7	507.47	233.43	-1185.6	337.29	107.15	-1117.1	250.55	113.21	-1179.3	259.6	114.74	-1123.7	326.73	105.29	-1141.9	100.33	128.93	-1139.1	109.73	222.7	-1217.9	69.778	174.85	-1211.7	46.044	208.98	-1215.6	41.236	147.96	-1030.4	42.489	110.66	-999.83	50.541	226.76	-942.28	62.171	177.77	-1235.4	1556.7	268.57	-1334.3	1301.1	259
51	0.20833	-1063.3	1276	247.56	-1163.8	1507.2	433.11	-1208.9	1493.2	86.06	-1116.1	1829.6	238.29	-1102.4	992.49	393.66	NaN	NaN	NaN	NaN	NaN	NaN	NaN	NaN	NaN	-1188.5	908.2	454.19	-1216.1	928.61	79.619	-1192.3	1086.7	438.78	-1210.5	1095	101.53	-1340.7	988.56	256.22	-1144.5	651.84	450.99	-1052.2	584.57	430.19	-1125.6	563.13	438.55	-1066.5	693.83	446.9	-1104	500.21	433.72	-1105.8	495.62	298.28	-1303.9	388.34	417.77	-1311.7	281.64	389.64	-1352.4	338.58	404.18	-1265.5	336.35	408.61	-1429.7	253.76	386.12	-1393.8	235.2	304.07	-1491.4	265.42	320.11	-1498.5	233.66	291.63	-1518.6	246.1	352.89	-1408.5	132.41	437.28	-1359.4	93.3	330.67	NaN	NaN	NaN	-1185.9	688.86	89.579	-1088.1	610.11	95.297	-1160.4	604.15	103.93	-1118.8	693.92	78.412	-1103.2	518.32	110.55	-1102.6	507.38	233.51	-1184.7	337.48	107.55	-1116.3	250.5	113.33	-1178.5	259.88	114.99	-1122.7	326.69	105.43	-1141.8	100.49	129.16	-1139	109.74	222.94	-1218	69.953	174.98	-1211.7	46.112	209.08	-1215.5	41.418	148.02	-1030.3	42.518	110.66	-999.75	50.289	226.8	-942.21	61.9	177.79	-1230	1557.4	268.14	-1329.1	1301.9	258.37
52	0.2125	-1058.2	1276.6	247.55	-1158.9	1508	432.83	-1203.2	1493.9	85.724	-1110.4	1830.2	238.01	-1097.4	993.43	393.42	NaN	NaN	NaN	NaN	NaN	NaN	NaN	NaN	NaN	-1183.3	909.27	454.09	-1211.4	929.08	79.559	-1187.3	1087.6	438.52	-1205.3	1095.7	101.29	-1335.7	989.34	256.1	-1136.7	653.18	450.8	-1043.7	586.85	429.85	-1117	564.66	438.26	-1059.1	695.93	446.72	-1094.7	502.06	433.33	-1096.3	497.6	297.91	-1293.4	388.1	417.18	-1300.3	281.02	389.3	-1341.4	337.75	403.65	-1255.5	336.03	408.32	-1417.5	251.99	385.62	-1381.4	233.8	303.58	-1479.4	262.56	319.48	-1486.3	230.59	291.03	-1506.4	243	352.34	-1394.2	131.12	437.21	-1344.9	92.5	330.67	-1295.4	73.96	391.67	-1182.7	689.34	89.665	-1085.4	609.92	95.323	-1157.7	604.44	103.96	-1115.5	693.94	78.453	-1101.1	518.17	110.62	-1100.5	507.29	233.6	-1183.7	337.68	107.9	-1115.5	250.46	113.44	-1177.6	260.16	115.23	-1121.7	326.66	105.56	-1141.7	100.65	129.39	-1138.8	109.76	223.18	-1218.1	70.138	175.11	-1211.7	46.187	209.17	-1215.4	41.604	148.08	-1030.3	42.547	110.67	-999.66	50.042	226.85	-942.14	61.635	177.82	-1224.6	1558.2	267.72	-1323.9	1302.7	257.74
53	0.21667	-1053	1277.3	247.55	-1154.1	1508.8	432.55	-1197.5	1494.7	85.395	-1104.7	1830.9	237.75	-1092.4	994.39	393.19	NaN	NaN	NaN	NaN	NaN	NaN	NaN	NaN	NaN	-1178.1	910.36	454.02	-1206.8	929.55	79.52	-1182.3	1088.4	438.29	-1200	1096.3	101.06	-1330.7	990.13	256.01	-1129	654.55	450.64	-1035.4	589.13	429.49	-1108.5	566.21	437.99	-1051.7	698.04	446.52	-1085.4	503.91	432.94	-1087	499.61	297.53	-1282.9	387.64	416.64	-1288.7	280.31	388.94	-1330.3	336.65	403.16	-1245.1	335.67	408.03	-1405.1	249.87	385.17	-1368.8	232.15	303.11	-1467.2	259.33	318.92	-1473.9	227.17	290.48	-1493.9	239.48	351.87	-1379.6	129.52	437.1	-1330.1	91.509	330.59	-1281.4	73.365	391.2	-1179.4	689.82	89.755	-1082.7	609.74	95.359	-1155.1	604.74	103.99	-1112.3	693.95	78.509	-1099.2	518.03	110.69	-1098.5	507.19	233.69	-1182.8	337.9	108.21	-1114.8	250.43	113.56	-1176.8	260.43	115.47	-1120.8	326.64	105.69	-1141.5	100.81	129.61	-1138.7	109.78	223.41	-1218.1	70.332	175.24	-1211.6	46.269	209.26	-1215.3	41.795	148.15	-1030.2	42.575	110.69	-999.58	49.801	226.9	-942.06	61.375	177.85	-1219.3	1558.9	267.3	-1318.7	1303.5	257.12
54	0.22083	-1047.8	1277.9	247.56	-1149.2	1509.6	432.28	-1191.7	1495.4	85.074	-1098.9	1831.5	237.52	-1087.5	995.36	392.97	NaN	NaN	NaN	NaN	NaN	NaN	NaN	NaN	NaN	-1172.9	911.45	453.96	-1202.2	930.01	79.5	-1177.3	1089.3	438.06	-1194.8	1097	100.85	-1325.7	990.92	255.96	-1121.3	655.94	450.52	-1027.1	591.41	429.1	-1100	567.8	437.76	-1044.4	700.13	446.31	-1076.3	505.75	432.54	-1077.8	501.63	297.16	-1272.4	386.96	416.15	-1276.7	279.49	388.56	-1319.2	335.28	402.71	-1234.3	335.24	407.74	-1392.5	247.43	384.76	-1356.1	230.27	302.66	-1454.7	255.75	318.44	-1461.2	223.43	290	-1481.1	235.55	351.48	-1364.8	127.63	436.93	-1315	90.343	330.43	-1266.8	72.735	390.71	-1176.2	690.32	89.85	-1080.1	609.55	95.404	-1152.5	605.05	104.02	-1109.1	693.97	78.577	-1097.2	517.89	110.76	-1096.5	507.08	233.77	-1181.8	338.14	108.48	-1114.1	250.41	113.67	-1176	260.7	115.69	-1119.8	326.63	105.82	-1141.4	100.96	129.83	-1138.5	109.81	223.63	-1218.2	70.535	175.36	-1211.6	46.358	209.35	-1215.1	41.989	148.21	-1030.2	42.603	110.71	-999.49	49.567	226.95	-941.99	61.12	177.88	-1214	1559.6	266.9	-1313.5	1304.3	256.5
55	0.225	-1042.7	1278.6	247.58	-1144.4	1510.4	432.01	-1186	1496.2	84.76	-1093.1	1832.1	237.3	-1082.5	996.33	392.76	NaN	NaN	NaN	NaN	NaN	NaN	NaN	NaN	NaN	-1167.7	912.55	453.93	-1197.6	930.48	79.501	-1172.3	1090.2	437.85	-1189.6	1097.7	100.64	-1320.6	991.72	255.94	-1113.6	657.34	450.43	-1019	593.67	428.68	-1091.7	569.39	437.55	-1037.2	702.21	446.09	-1067.2	507.57	432.15	-1068.9	503.65	296.8	-1261.8	386.08	415.72	-1264.6	278.57	388.17	-1307.9	333.67	402.29	-1223.2	334.75	407.46	-1379.7	244.68	384.39	-1343.1	228.16	302.24	-1442.1	251.85	318.02	-1448.4	219.38	289.57	-1468	231.25	351.17	-1349.6	125.47	436.73	-1299.5	89.017	330.2	-1251.5	72.073	390.2	-1173	690.82	89.948	-1077.5	609.36	95.456	-1149.9	605.36	104.04	-1105.9	693.99	78.657	-1095.4	517.76	110.84	-1094.5	506.96	233.85	-1180.8	338.39	108.7	-1113.4	250.4	113.79	-1175.3	260.97	115.91	-1118.9	326.62	105.95	-1141.3	101.12	130.05	-1138.4	109.86	223.86	-1218.3	70.744	175.49	-1211.6	46.452	209.44	-1215	42.185	148.27	-1030.1	42.63	110.73	-999.41	49.341	227	-941.91	60.872	177.91	-1208.6	1560.4	266.5	-1308.3	1305.1	255.89
56	0.22917	-1037.5	1279.2	247.6	-1139.6	1511.1	431.75	-1180.3	1496.9	84.452	-1087.3	1832.8	237.11	-1077.5	997.3	392.56	NaN	NaN	NaN	NaN	NaN	NaN	NaN	NaN	NaN	-1162.4	913.65	453.92	-1193	930.94	79.522	-1167.3	1091.1	437.65	-1184.3	1098.4	100.46	-1315.6	992.51	255.95	-1106	658.75	450.38	-1010.9	595.92	428.23	-1083.5	571	437.37	-1029.9	704.27	445.84	-1058.3	509.38	431.75	-1060.1	505.65	296.44	-1251.2	384.99	415.34	-1252.2	277.54	387.77	-1296.5	331.83	401.9	-1211.8	334.2	407.19	-1366.7	241.64	384.05	-1329.9	225.85	301.85	-1429.3	247.64	317.66	-1435.3	215.05	289.2	-1454.6	226.6	350.92	-1334.2	123.08	436.49	-1283.7	87.55	329.91	-1235.8	71.383	389.68	-1169.9	691.32	90.049	-1074.9	609.17	95.515	-1147.3	605.68	104.06	-1102.7	694	78.747	-1093.6	517.63	110.91	-1092.6	506.84	233.92	-1179.8	338.66	108.9	-1112.8	250.4	113.9	-1174.6	261.22	116.14	-1118	326.63	106.08	-1141.1	101.28	130.26	-1138.3	109.9	224.07	-1218.4	70.957	175.62	-1211.5	46.552	209.53	-1214.9	42.382	148.33	-1030.1	42.656	110.75	-999.32	49.121	227.06	-941.83	60.629	177.94	-1203.3	1561.1	266.11	-1303	1305.9	255.28
57	0.23333	-1032.3	1279.8	247.64	-1134.7	1511.9	431.5	-1174.5	1497.6	84.151	-1081.4	1833.3	236.93	-1072.5	998.26	392.38	NaN	NaN	NaN	NaN	NaN	NaN	NaN	NaN	NaN	-1157.2	914.73	453.93	-1188.4	931.4	79.564	-1162.3	1091.9	437.47	-1179.1	1099.1	100.28	-1310.5	993.29	255.98	-1098.4	660.16	450.36	-1002.9	598.13	427.76	-1075.3	572.62	437.22	-1022.8	706.29	445.58	-1049.4	511.16	431.35	-1051.4	507.63	296.09	-1240.5	383.72	415.01	-1239.6	276.39	387.35	-1285	329.78	401.54	-1200.2	333.57	406.93	-1353.4	238.35	383.75	-1316.5	223.34	301.48	-1416.3	243.16	317.36	-1422	210.45	288.88	-1441	221.63	350.73	-1318.6	120.48	436.22	-1267.7	85.96	329.58	-1219.5	70.669	389.16	-1166.8	691.82	90.156	-1072.4	608.98	95.582	-1144.8	606	104.08	-1099.6	694.01	78.848	-1091.8	517.52	110.99	-1090.6	506.72	233.99	-1178.7	338.94	109.06	-1112.1	250.4	114	-1173.9	261.45	116.36	-1117.1	326.64	106.21	-1141	101.43	130.46	-1138.1	109.96	224.28	-1218.6	71.172	175.75	-1211.5	46.657	209.62	-1214.7	42.578	148.39	-1030	42.682	110.78	-999.24	48.909	227.12	-941.75	60.393	177.97	-1197.9	1561.7	265.72	-1297.8	1306.6	254.68
